<svg width="1920" height="86" viewBox="0 0 1920 86" fill="none" xmlns="http://www.w3.org/2000/svg">
<g clip-path="url(#clip0_12_171)">
<path d="M0 25.8L45.7333 31.5244C91.4667 37.3563 182.667 48.6438 274.667 45.8756C365.733 43 457.333 25.8 548 28.6756C640 31.4438 732 54.5563 822.667 61.6244C914.267 68.8 1005.33 60.2 1097.33 50.1756C1188.53 40.0438 1280 28.7563 1372 31.5244C1462.8 34.4 1554.67 51.6 1645.33 51.6C1737.2 51.6 1828 34.4 1874.67 25.8L1920 17.2V86H1874.27C1828.53 86 1737.33 86 1645.33 86C1554.27 86 1462.67 86 1372 86C1280 86 1188 86 1097.33 86C1005.73 86 914.667 86 822.667 86C731.467 86 640 86 548 86C457.2 86 365.333 86 274.667 86C182.8 86 92 86 45.3333 86H0V25.8Z" fill="#1E1E1E"/>
</g>
<defs>
<clipPath id="clip0_12_171">
<rect width="1920" height="86" fill="white"/>
</clipPath>
</defs>
</svg>
